<?xml version="1.0" encoding="utf-8"?>
<!-- Generator: Adobe Illustrator 22.1.0, SVG Export Plug-In . SVG Version: 6.00 Build 0)  -->
<svg version="1.1" id="Ebene_1" xmlns="http://www.w3.org/2000/svg" xmlns:xlink="http://www.w3.org/1999/xlink" x="0px" y="0px"
	 viewBox="0 0 329 110.7" style="enable-background:new 0 0 329 110.7;" xml:space="preserve">
<style type="text/css">
	.st0{fill:#00C7FF;}
	.st1{fill:#9B9687;}
	.st2{fill:#555555;}
</style>
<path id="XMLID_24_" class="st0" d="M160.6,26.7c-42.3,13.9-52.6,41.8-56,76.4C90.9,72.7,51.1,53.9,0.3,64.2
	C45.5,48,71.1,48.1,97.5,68C105.3,45.4,125.3,33.3,160.6,26.7z"/>
<path id="XMLID_23_" class="st1" d="M160.6,9.2c1-5.9,6.6-9.8,12.5-8.8S183,7,182,12.9c-1,5.9-6.6,9.8-12.5,8.8
	C163.6,20.6,159.6,15,160.6,9.2L160.6,9.2z"/>
<path id="XMLID_22_" class="st1" d="M100,0.8c43.7,8.5,57.4,34.9,65.1,68.8c9.8-31.9,46.9-55.5,98.6-51.6
	c-46.8-10.4-72.2-7.2-95.9,15.9C157.3,12.4,135.9,2.9,100,0.8z"/>
<path id="XMLID_21_" class="st0" d="M101.5,42.6c-1.8-5.7-7.8-8.9-13.5-7.2c-5.7,1.8-8.9,7.8-7.2,13.5c1.8,5.7,7.8,8.9,13.5,7.2
	C100.1,54.4,103.3,48.3,101.5,42.6L101.5,42.6z"/>
<g>
	<path class="st2" d="M132.2,103.5l1.4-17.4c0.3,0,0.8-0.1,1.3-0.1c0.6,0,1,0,1.3,0.1l2.9,9c0.2,0.4,0.4,1.1,0.6,2
		c0.3,0.9,0.4,1.5,0.4,1.7h0.1c0.2-1.2,0.6-2.4,1-3.7l2.9-9c0.4,0,0.8-0.1,1.3-0.1c0.5,0,0.9,0,1.3,0.1l1.4,17.4
		c-0.3,0.1-0.6,0.1-1,0.1c-0.3,0-0.6,0-0.9-0.1L145.5,93c0-0.8-0.1-2.4-0.2-4.8h-0.1l-4,12.6c-0.4,0.1-0.7,0.1-1,0.1
		c-0.3,0-0.6,0-0.9-0.1l-4-12.6H135c0,0.4,0,1.2-0.1,2.4c0,1.2-0.1,2-0.1,2.4l-0.7,10.6c-0.3,0.1-0.6,0.1-1,0.1
		C132.8,103.7,132.5,103.6,132.2,103.5z"/>
	<path class="st2" d="M161.9,97.9H154c0.1,2.9,1.2,4.3,3.3,4.3c1.2,0,2.4-0.4,3.7-1.1c0.4,0.3,0.6,0.8,0.7,1.3c-1.4,1-3,1.4-4.7,1.4
		c-0.9,0-1.6-0.2-2.3-0.5c-0.6-0.3-1.1-0.8-1.5-1.4c-0.4-0.6-0.7-1.3-0.9-2.1c-0.2-0.8-0.3-1.7-0.3-2.6c0-1,0.1-1.9,0.3-2.7
		c0.2-0.8,0.6-1.5,1-2.1c0.4-0.6,1-1,1.6-1.4c0.6-0.3,1.3-0.5,2.1-0.5c0.8,0,1.5,0.1,2.1,0.4c0.6,0.3,1.1,0.7,1.6,1.1
		c0.4,0.5,0.7,1.1,1,1.7c0.2,0.7,0.3,1.4,0.3,2.2c0,0.3,0,0.6,0,0.9C162,97.3,161.9,97.6,161.9,97.9z M154,96.4h6.1v-0.3
		c0-1.2-0.2-2.1-0.7-2.8c-0.5-0.7-1.2-1.1-2.2-1.1c-1,0-1.7,0.4-2.3,1.1C154.4,94.1,154.1,95.1,154,96.4z"/>
	<path class="st2" d="M168.2,92.8v10.8c-0.3,0.1-0.6,0.1-0.9,0.1c-0.4,0-0.7,0-0.9-0.1v-9.8c0-0.5-0.1-0.8-0.2-1
		c-0.2-0.2-0.4-0.3-0.8-0.3h-0.2c-0.1-0.2-0.1-0.4-0.1-0.7c0-0.3,0-0.5,0.1-0.7c0.3,0,0.6-0.1,0.8-0.1c0.2,0,0.4,0,0.5,0h0.2
		c0.5,0,0.9,0.2,1.2,0.5C168.1,91.8,168.2,92.2,168.2,92.8z M165.7,86.7c0.3-0.2,0.7-0.3,1.2-0.3c0.5,0,0.8,0.1,1,0.2s0.3,0.5,0.3,1
		c0,0.5-0.1,0.8-0.3,1c-0.2,0.2-0.5,0.2-1,0.2c-0.4,0-0.7-0.1-1-0.2c-0.2-0.1-0.4-0.5-0.4-1C165.6,87.2,165.6,86.9,165.7,86.7z"/>
	<path class="st2" d="M182.6,94.8v6.3c0,1,0.1,1.7,0.3,2.2c-0.3,0.3-0.7,0.4-1.2,0.4c-0.6,0-1-0.4-1-1.3v-7.1c0-1-0.1-1.8-0.4-2.2
		c-0.3-0.4-0.7-0.7-1.5-0.7c-0.7,0-1.4,0.2-2.1,0.5c-0.7,0.4-1.3,0.8-1.8,1.4v9.1c-0.3,0.1-0.6,0.1-0.9,0.1c-0.4,0-0.7,0-0.9-0.1
		V91.1l0.2-0.2h0.7c0.4,0,0.7,0.1,0.8,0.3c0.1,0.2,0.2,0.5,0.2,1v0.4c0.6-0.5,1.3-1,2-1.3c0.8-0.3,1.6-0.5,2.4-0.5
		c1.1,0,2,0.4,2.5,1.1C182.4,92.7,182.6,93.6,182.6,94.8z"/>
	<path class="st2" d="M199,97.8h-2.3v5.8c-0.5,0.1-1.1,0.1-1.7,0.1c-0.7,0-1.2,0-1.7-0.1V86.3l0.2-0.2c1.4,0,2.5-0.1,3.5-0.1
		c0.9,0,1.6,0,2.1,0c1.8,0,3.3,0.5,4.4,1.5c1.1,1,1.6,2.5,1.6,4.4c0,1-0.1,1.8-0.4,2.5c-0.3,0.7-0.7,1.3-1.2,1.8
		c-0.5,0.5-1.2,0.9-1.9,1.1C200.8,97.6,200,97.8,199,97.8z M196.7,88.7v6.5c0.7,0,1.2,0,1.7,0c0.5,0,0.9,0,1.2-0.1
		c0.3-0.1,0.6-0.2,0.8-0.3c0.2-0.2,0.4-0.4,0.6-0.7c0.2-0.3,0.3-0.6,0.4-1c0.1-0.4,0.1-0.7,0.1-1.1c0-0.4,0-0.8-0.1-1.2
		s-0.2-0.7-0.4-1c-0.2-0.3-0.5-0.6-0.8-0.7c-0.3-0.2-0.8-0.3-1.3-0.3c-0.5,0-0.9,0-1.3,0C197.3,88.7,196.9,88.7,196.7,88.7z"/>
	<path class="st2" d="M209,103.6V93.3l-2.2,0c-0.1-0.2-0.1-0.4-0.1-0.6c0-0.2,0-0.4,0-0.6s0-0.4,0-0.6c0-0.2,0-0.4,0.1-0.6l2,0
		c-0.1-0.9-0.2-1.5-0.2-2c0-0.6,0.1-1.2,0.3-1.7c0.2-0.5,0.5-1,0.9-1.3c0.4-0.4,0.8-0.7,1.3-0.9c0.5-0.2,1.1-0.3,1.6-0.3
		c1.2,0,2.4,0.2,3.7,0.7c0,0.9-0.2,1.7-0.7,2.2c-1-0.2-1.7-0.4-2.1-0.4c-1.2,0-1.8,0.6-1.8,1.9c0,0.6,0,1.2,0.2,1.8l3.5,0
		c0,0.2,0.1,0.4,0.1,0.6c0,0.2,0,0.4,0,0.6s0,0.4,0,0.6c0,0.2-0.1,0.4-0.1,0.6l-3.2-0.1v10.3c-0.3,0.1-0.6,0.1-0.8,0.1s-0.5,0-0.8,0
		c-0.3,0-0.5,0-0.8,0C209.5,103.6,209.2,103.6,209,103.6z"/>
	<path class="st2" d="M221.8,101.1h0.8c0.2,0.5,0.3,0.9,0.3,1.4c0,0.4,0,0.8-0.1,1c-1,0.2-1.9,0.2-2.5,0.2c-1,0-1.7-0.2-2.2-0.8
		c-0.5-0.5-0.7-1.3-0.7-2.4V85l0.2-0.2h1.3c0.7,0,1.1,0.2,1.4,0.5c0.3,0.3,0.4,0.8,0.4,1.6v13.1
		C220.8,100.7,221.1,101.1,221.8,101.1z"/>
	<path class="st2" d="M235.1,98.3h-7c0.1,0.9,0.3,1.7,0.7,2.2s1.1,0.8,2,0.8c1,0,2.1-0.3,3.4-0.9c0.5,0.5,0.8,1.2,0.9,2
		c-1.4,1-3,1.5-4.9,1.5c-1.8,0-3.2-0.6-4.1-1.7c-0.9-1.1-1.4-2.8-1.4-5c0-1,0.1-1.9,0.4-2.8c0.2-0.8,0.6-1.5,1-2.1
		c0.5-0.6,1-1,1.7-1.4c0.7-0.3,1.4-0.5,2.3-0.5c0.9,0,1.6,0.1,2.3,0.4c0.7,0.3,1.2,0.6,1.7,1.1c0.5,0.5,0.8,1.1,1,1.7
		c0.2,0.7,0.3,1.4,0.3,2.2c0,0.4,0,0.8-0.1,1.2C235.2,97.6,235.1,97.9,235.1,98.3z M230.1,92.9c-1.3,0-2,1-2.1,3h4.2v-0.3
		c0-0.8-0.2-1.5-0.5-2C231.4,93.2,230.8,92.9,230.1,92.9z"/>
	<path class="st2" d="M246.1,91.8c0.5-0.6,1.2-1,2.1-1.1c0.2,0.2,0.5,0.4,0.7,0.8c0.2,0.3,0.4,0.7,0.4,0.9c-0.5,0.4-0.7,1.1-0.7,2.1
		v7.1c0,1.5-0.1,2.7-0.4,3.7c-0.2,1-0.6,1.7-1.1,2.3c-0.5,0.6-1.1,1-1.8,1.2c-0.7,0.2-1.6,0.3-2.5,0.3c-1.7,0-3.2-0.3-4.6-0.9
		c0-0.4,0.1-0.9,0.2-1.3c0.2-0.5,0.4-0.9,0.6-1.1c1.1,0.5,2.2,0.8,3.4,0.8c1.9,0,2.9-1,2.9-3v-1c-1,0.8-2,1.1-3.1,1.1
		c-1.5,0-2.6-0.6-3.4-1.8c-0.8-1.2-1.1-2.8-1.1-4.8c0-1,0.1-2,0.4-2.8c0.3-0.8,0.6-1.5,1.1-2.1s1-1,1.6-1.3c0.6-0.3,1.2-0.5,1.9-0.5
		C244.1,90.5,245.2,91,246.1,91.8z M245.4,99.9v-5.8c-0.7-0.7-1.4-1-2.1-1c-0.7,0-1.2,0.4-1.6,1.1c-0.4,0.7-0.6,1.7-0.6,3.1
		c0,1.3,0.2,2.3,0.5,2.9c0.3,0.6,0.8,0.9,1.4,0.9C243.9,101.1,244.7,100.7,245.4,99.9z"/>
	<path class="st2" d="M262.1,98.3h-7c0,0.9,0.3,1.7,0.7,2.2c0.4,0.5,1.1,0.8,2,0.8c1,0,2.1-0.3,3.4-0.9c0.5,0.5,0.8,1.2,0.9,2
		c-1.4,1-3,1.5-4.9,1.5c-1.8,0-3.2-0.6-4.1-1.7c-0.9-1.1-1.4-2.8-1.4-5c0-1,0.1-1.9,0.4-2.8c0.2-0.8,0.6-1.5,1-2.1
		c0.5-0.6,1-1,1.7-1.4c0.7-0.3,1.4-0.5,2.3-0.5c0.9,0,1.6,0.1,2.3,0.4c0.7,0.3,1.2,0.6,1.7,1.1c0.5,0.5,0.8,1.1,1,1.7
		c0.2,0.7,0.3,1.4,0.3,2.2c0,0.4,0,0.8-0.1,1.2C262.3,97.6,262.2,97.9,262.1,98.3z M257.2,92.9c-1.3,0-2,1-2.1,3h4.2v-0.3
		c0-0.8-0.2-1.5-0.5-2C258.4,93.2,257.9,92.9,257.2,92.9z"/>
	<path class="st2" d="M265.6,102.9V85l0.2-0.2h1.3c0.7,0,1.1,0.2,1.4,0.5c0.3,0.3,0.4,0.8,0.4,1.6v4.9c0.9-0.7,2-1.1,3.2-1.1
		c1.5,0,2.6,0.6,3.3,1.8c0.8,1.2,1.1,2.8,1.1,4.9c0,1-0.1,1.8-0.4,2.6c-0.3,0.8-0.7,1.5-1.2,2c-0.5,0.6-1.2,1-1.9,1.3
		c-0.7,0.3-1.6,0.5-2.4,0.5C268.7,103.8,267,103.5,265.6,102.9z M271.1,93.4c-0.4,0-0.8,0.1-1.2,0.3c-0.4,0.2-0.7,0.5-1,0.9v6.7
		c0.6,0.1,1.1,0.2,1.6,0.2c0.8,0,1.5-0.4,1.9-1.1c0.4-0.7,0.7-1.8,0.7-3.2C273,94.6,272.4,93.4,271.1,93.4z"/>
	<path class="st2" d="M289.2,98.3h-7c0,0.9,0.3,1.7,0.7,2.2c0.4,0.5,1.1,0.8,2,0.8c1,0,2.1-0.3,3.4-0.9c0.5,0.5,0.8,1.2,0.9,2
		c-1.4,1-3,1.5-4.9,1.5c-1.8,0-3.2-0.6-4.1-1.7c-0.9-1.1-1.4-2.8-1.4-5c0-1,0.1-1.9,0.4-2.8s0.6-1.5,1-2.1c0.5-0.6,1-1,1.7-1.4
		c0.7-0.3,1.4-0.5,2.3-0.5c0.9,0,1.6,0.1,2.3,0.4c0.7,0.3,1.2,0.6,1.7,1.1c0.5,0.5,0.8,1.1,1,1.7c0.2,0.7,0.3,1.4,0.3,2.2
		c0,0.4,0,0.8-0.1,1.2C289.3,97.6,289.3,97.9,289.2,98.3z M284.2,92.9c-1.3,0-2,1-2.1,3h4.2v-0.3c0-0.8-0.2-1.5-0.5-2
		C285.5,93.2,285,92.9,284.2,92.9z"/>
	<path class="st2" d="M291.9,92.4c0.1-0.3,0.2-0.6,0.4-1c0.2-0.3,0.4-0.6,0.7-0.8c1.4,0.2,2.3,0.9,2.8,2.3c0.6-1.5,1.7-2.3,3.2-2.3
		c0.6,0,1.1,0.1,1.5,0.2c0,1.2-0.3,2.2-0.8,3.1c-0.3-0.1-0.6-0.1-1.2-0.2c-1,0-1.8,0.5-2.4,1.6v8.1c-0.5,0.1-1.1,0.1-1.6,0.1
		c-0.6,0-1.2,0-1.7-0.1v-8.5C292.8,93.9,292.5,93,291.9,92.4z"/>
	<path class="st2" d="M302.7,99.4v-5.6c0-1.1-0.2-1.9-0.5-2.4c0.6-0.5,1.2-0.7,2-0.7c0.7,0,1.2,0.2,1.5,0.5c0.3,0.3,0.4,0.9,0.4,1.6
		v5.9c0,0.7,0.1,1.3,0.3,1.6c0.2,0.3,0.5,0.5,1,0.5c0.9,0,1.7-0.4,2.5-1.2v-8.7c0.4-0.1,0.9-0.1,1.6-0.1c0.7,0,1.3,0,1.7,0.1v9.1
		c0,1,0.2,1.7,0.7,2.1c-0.1,0.3-0.2,0.6-0.4,0.9c-0.2,0.3-0.4,0.6-0.7,0.7c-1.2-0.1-2.1-0.7-2.6-1.8c-1.3,1.2-2.7,1.8-4.1,1.8
		c-1.1,0-2-0.4-2.6-1.2C303,101.8,302.7,100.7,302.7,99.4z"/>
	<path class="st2" d="M317.8,103.6V93.3l-2.2,0c0-0.2-0.1-0.4-0.1-0.6c0-0.2,0-0.4,0-0.6s0-0.4,0-0.6c0-0.2,0.1-0.4,0.1-0.6l2,0
		c-0.1-0.9-0.2-1.5-0.2-2c0-0.6,0.1-1.2,0.3-1.7c0.2-0.5,0.5-1,0.9-1.3c0.4-0.4,0.8-0.7,1.3-0.9c0.5-0.2,1.1-0.3,1.6-0.3
		c1.2,0,2.4,0.2,3.7,0.7c0,0.9-0.2,1.7-0.7,2.2c-1-0.2-1.7-0.4-2.1-0.4c-1.2,0-1.8,0.6-1.8,1.9c0,0.6,0.1,1.2,0.2,1.8l3.5,0
		c0,0.2,0.1,0.4,0.1,0.6c0,0.2,0,0.4,0,0.6s0,0.4,0,0.6c0,0.2-0.1,0.4-0.1,0.6l-3.2-0.1v10.3c-0.3,0.1-0.6,0.1-0.8,0.1
		c-0.3,0-0.5,0-0.8,0c-0.3,0-0.5,0-0.8,0C318.4,103.6,318.1,103.6,317.8,103.6z"/>
</g>
</svg>
