<?xml version="1.0" encoding="utf-8"?>
<!-- Generator: Adobe Illustrator 22.1.0, SVG Export Plug-In . SVG Version: 6.00 Build 0)  -->
<svg version="1.1" id="Ebene_1" xmlns="http://www.w3.org/2000/svg" xmlns:xlink="http://www.w3.org/1999/xlink" x="0px" y="0px"
	 viewBox="0 0 329 110.7" style="enable-background:new 0 0 329 110.7;" xml:space="preserve">
<style type="text/css">
	.st0{fill:#00C7FF;}
	.st1{fill:#9B9687;}
	.st2{fill:#555555;}
</style>
<path id="XMLID_24_" class="st0" d="M160.6,26.7c-42.3,13.9-52.6,41.8-56,76.4C90.9,72.7,51.1,53.9,0.3,64.2
	C45.5,48,71.1,48.1,97.5,68C105.3,45.4,125.3,33.3,160.6,26.7z"/>
<path id="XMLID_23_" class="st1" d="M160.6,9.2c1-5.9,6.6-9.8,12.5-8.8S183,7,182,12.9c-1,5.9-6.6,9.8-12.5,8.8
	C163.6,20.6,159.6,15,160.6,9.2L160.6,9.2z"/>
<path id="XMLID_22_" class="st1" d="M100,0.8c43.7,8.5,57.4,34.9,65.1,68.8c9.8-31.9,46.9-55.5,98.6-51.6
	c-46.8-10.4-72.2-7.2-95.9,15.9C157.3,12.4,135.9,2.9,100,0.8z"/>
<path id="XMLID_21_" class="st0" d="M101.5,42.6c-1.8-5.7-7.8-8.9-13.5-7.2c-5.7,1.8-8.9,7.8-7.2,13.5c1.8,5.7,7.8,8.9,13.5,7.2
	C100.1,54.4,103.3,48.3,101.5,42.6L101.5,42.6z"/>
<g>
	<path class="st2" d="M132.3,103.4l1.4-17.4c0.3,0,0.8-0.1,1.3-0.1c0.6,0,1,0,1.3,0.1l2.9,9c0.2,0.4,0.4,1.1,0.6,2
		c0.3,0.9,0.4,1.5,0.4,1.7h0.1c0.2-1.2,0.6-2.4,1-3.7l2.9-9c0.4,0,0.8-0.1,1.3-0.1s0.9,0,1.3,0.1l1.4,17.4c-0.3,0.1-0.6,0.1-1,0.1
		s-0.6,0-0.9-0.1l-0.7-10.6c0-0.8-0.1-2.4-0.2-4.8h-0.1l-4,12.6c-0.4,0.1-0.7,0.1-1,0.1c-0.3,0-0.6,0-0.9-0.1l-4-12.6h-0.1
		c0,0.4,0,1.2-0.1,2.4c0,1.2-0.1,2-0.1,2.4l-0.7,10.6c-0.3,0.1-0.6,0.1-1,0.1C132.9,103.5,132.6,103.5,132.3,103.4z"/>
	<path class="st2" d="M161.9,91l-3.5,12c-0.6,2.2-1.3,3.7-2.1,4.6c-0.7,0.9-1.8,1.4-3.3,1.4c-0.7,0-1.4-0.1-2.1-0.3
		c-0.1-0.5,0.1-0.9,0.4-1.4c0.5,0.2,1.1,0.3,1.7,0.3c0.9,0,1.6-0.3,2.1-0.9s0.9-1.6,1.3-2.9l0.1-0.3c-0.4,0-0.8-0.1-1-0.3
		c-0.2-0.2-0.4-0.5-0.6-0.9l-3.6-11.2c0.5-0.2,0.9-0.3,1.1-0.3c0.5,0,0.8,0.3,1,0.9l2,6.4c0.1,0.2,0.5,1.5,1.2,4
		c0,0.1,0.1,0.2,0.3,0.2l3.1-11.3c0.2-0.1,0.5-0.1,0.9-0.1S161.6,90.8,161.9,91L161.9,91z"/>
	<path class="st2" d="M180.1,92.5v-0.3c0-0.6-0.1-1.1-0.2-1.5c-0.1-0.5-0.3-0.9-0.6-1.2c-0.3-0.3-0.6-0.6-1-0.8
		c-0.4-0.2-0.9-0.3-1.4-0.3c-1.2,0-2.1,0.6-2.7,1.7c-0.6,1.1-0.8,2.8-0.8,5.1c0,1.8,0.3,3.2,1,4.2c0.7,1,1.6,1.5,2.8,1.5
		c0.6,0,1.3-0.1,2.1-0.4c0.7-0.3,1.5-0.8,2.4-1.4c0.4,0.2,0.7,0.6,1,1c0.3,0.4,0.5,0.8,0.6,1.2c-0.4,0.4-0.8,0.7-1.3,1
		c-0.5,0.3-1,0.6-1.6,0.8c-0.6,0.2-1.2,0.4-1.8,0.6c-0.6,0.1-1.3,0.2-1.9,0.2c-1.3,0-2.3-0.2-3.2-0.7c-0.9-0.5-1.6-1.1-2.1-2
		c-0.6-0.8-1-1.8-1.2-2.9c-0.2-1.1-0.4-2.2-0.4-3.4c0-1.5,0.2-2.9,0.6-4c0.4-1.1,0.9-2.1,1.5-2.9c0.6-0.8,1.4-1.3,2.2-1.7
		c0.9-0.4,1.8-0.6,2.7-0.6c1,0,1.9,0.1,2.7,0.4c0.8,0.3,1.5,0.6,2.1,1.1c0.6,0.5,1,1,1.3,1.6c0.3,0.6,0.5,1.3,0.5,2
		c0,1.3-0.6,1.9-1.9,1.9c-0.2,0-0.4,0-0.6,0S180.4,92.6,180.1,92.5z"/>
	<path class="st2" d="M196.5,101.9c-0.1,0.3-0.2,0.6-0.5,1c-0.2,0.3-0.4,0.6-0.7,0.8c-1.1-0.1-1.9-0.6-2.4-1.5
		c-1.1,1.1-2.3,1.6-3.6,1.6c-0.7,0-1.2-0.1-1.7-0.3c-0.5-0.2-0.9-0.5-1.3-0.9c-0.3-0.4-0.6-0.8-0.7-1.2c-0.2-0.5-0.2-0.9-0.2-1.4
		c0-0.7,0.1-1.3,0.4-1.9c0.2-0.5,0.6-1,1-1.3c0.5-0.4,1-0.6,1.6-0.8c0.6-0.2,1.3-0.3,2-0.3c0.9,0,1.6,0,2.1,0.1V95
		c0-1.3-0.6-1.9-1.9-1.9c-0.9,0-2.1,0.3-3.9,0.9c-0.5-0.5-0.8-1.3-0.9-2.4c1.8-0.8,3.7-1.1,5.6-1.1c1.3,0,2.3,0.4,3.1,1.1
		c0.8,0.7,1.2,1.8,1.2,3.2v5.2C195.8,100.9,196.1,101.5,196.5,101.9z M190.1,101.3c0.9,0,1.6-0.4,2.4-1.1v-2.2c-0.3,0-0.5,0-0.8-0.1
		c-0.3,0-0.5,0-0.7,0c-0.7,0-1.3,0.1-1.7,0.4c-0.4,0.3-0.6,0.7-0.6,1.4c0,0.5,0.1,0.9,0.4,1.2C189.3,101.1,189.7,101.3,190.1,101.3z
		"/>
	<path class="st2" d="M198.9,92.3c0.1-0.3,0.2-0.6,0.4-1c0.2-0.3,0.4-0.6,0.7-0.8c1.4,0.2,2.3,0.9,2.8,2.3c0.6-1.5,1.7-2.3,3.2-2.3
		c0.6,0,1.1,0.1,1.5,0.2c0,1.2-0.3,2.2-0.8,3.1c-0.3-0.1-0.6-0.1-1.2-0.2c-1,0-1.8,0.5-2.4,1.6v8.1c-0.5,0.1-1.1,0.1-1.6,0.1
		c-0.6,0-1.2,0-1.7-0.1v-8.5C199.8,93.7,199.5,92.8,198.9,92.3z"/>
	<path class="st2" d="M219,98.2h-7c0,0.9,0.3,1.7,0.7,2.2c0.4,0.5,1.1,0.8,2,0.8c1,0,2.1-0.3,3.4-0.9c0.5,0.5,0.8,1.2,0.9,2
		c-1.4,1-3,1.5-4.9,1.5c-1.8,0-3.2-0.6-4.1-1.7c-0.9-1.1-1.4-2.8-1.4-5c0-1,0.1-1.9,0.4-2.8c0.2-0.8,0.6-1.5,1-2.1
		c0.5-0.6,1-1,1.7-1.4c0.7-0.3,1.4-0.5,2.3-0.5c0.9,0,1.6,0.1,2.3,0.4c0.7,0.3,1.2,0.6,1.7,1.1c0.5,0.5,0.8,1.1,1,1.7
		c0.2,0.7,0.3,1.4,0.3,2.2c0,0.4,0,0.8-0.1,1.2S219.1,97.8,219,98.2z M214.1,92.8c-1.3,0-2,1-2.1,3h4.2v-0.3c0-0.8-0.2-1.5-0.5-2
		C215.3,93.1,214.8,92.8,214.1,92.8z"/>
	<path class="st2" d="M222.2,100c0.9,0.6,1.8,0.8,2.6,0.8c0.9,0,1.5-0.3,1.8-0.9c0.4-0.6,0.5-1.5,0.5-2.7V86
		c0.5-0.1,1.1-0.1,1.7-0.1c0.7,0,1.2,0,1.7,0.1v10.9c0,1-0.1,1.9-0.2,2.8c-0.2,0.8-0.5,1.6-0.9,2.2c-0.4,0.6-1,1.1-1.7,1.4
		c-0.7,0.3-1.6,0.5-2.8,0.5c-1.5,0-2.9-0.4-4.1-1.1C221.1,101.6,221.5,100.8,222.2,100z"/>
	<path class="st2" d="M243.4,91.8c1.2,1.2,1.8,3,1.8,5.3c0,1-0.1,1.9-0.4,2.8c-0.3,0.8-0.6,1.5-1.1,2.1c-0.5,0.6-1.1,1-1.8,1.3
		c-0.7,0.3-1.5,0.5-2.4,0.5c-0.9,0-1.7-0.2-2.4-0.5c-0.7-0.3-1.3-0.8-1.8-1.3c-0.5-0.6-0.9-1.3-1.1-2.1c-0.3-0.8-0.4-1.7-0.4-2.8
		c0-2.1,0.5-3.7,1.5-4.9s2.4-1.8,4.2-1.8C241.1,90.4,242.4,90.9,243.4,91.8z M239.5,92.9c-1.5,0-2.2,1.4-2.2,4.2
		c0,2.8,0.7,4.2,2.2,4.2c1.5,0,2.3-1.4,2.3-4.2C241.7,94.3,241,92.9,239.5,92.9z"/>
	<path class="st2" d="M248.3,102.8v-18l0.2-0.2h1.2c0.7,0,1.1,0.2,1.4,0.5c0.3,0.3,0.4,0.8,0.4,1.6v4.9c0.9-0.7,2-1.1,3.2-1.1
		c1.5,0,2.6,0.6,3.3,1.8c0.8,1.2,1.1,2.8,1.1,4.9c0,1-0.1,1.8-0.4,2.6c-0.3,0.8-0.7,1.5-1.2,2c-0.5,0.6-1.2,1-1.9,1.3
		c-0.7,0.3-1.6,0.5-2.4,0.5C251.3,103.6,249.7,103.4,248.3,102.8z M253.7,93.2c-0.4,0-0.8,0.1-1.2,0.3s-0.7,0.5-1,0.9v6.7
		c0.6,0.1,1.1,0.2,1.6,0.2c0.8,0,1.5-0.4,1.9-1.1c0.4-0.7,0.7-1.8,0.7-3.2C255.7,94.5,255,93.2,253.7,93.2z"/>
</g>
</svg>
