<svg xmlns="http://www.w3.org/2000/svg" viewBox="0 0 329 110.7" enable-background="new 0 0 329 110.7"><style type="text/css">.logo-st0{fill:#00C7FF;} .logo-st1{fill:#9B9687;} .logo-st2{fill:#555555;}</style><path id="XMLID_24_" class="logo-st0" d="M160.6 26.7c-42.3 13.9-52.6 41.8-56 76.4-13.7-30.4-53.5-49.2-104.3-38.9 45.2-16.2 70.8-16.1 97.2 3.8 7.8-22.6 27.8-34.7 63.1-41.3z"/><path id="XMLID_23_" class="logo-st1" d="M160.6 9.2c1-5.9 6.6-9.8 12.5-8.8s9.9 6.6 8.9 12.5-6.6 9.8-12.5 8.8c-5.9-1.1-9.9-6.7-8.9-12.5z"/><path id="XMLID_22_" class="logo-st1" d="M100 .8c43.7 8.5 57.4 34.9 65.1 68.8 9.8-31.9 46.9-55.5 98.6-51.6-46.8-10.4-72.2-7.2-95.9 15.9-10.5-21.5-31.9-31-67.8-33.1z"/><path id="XMLID_21_" class="logo-st0" d="M101.5 42.6c-1.8-5.7-7.8-8.9-13.5-7.2-5.7 1.8-8.9 7.8-7.2 13.5 1.8 5.7 7.8 8.9 13.5 7.2 5.8-1.7 9-7.8 7.2-13.5z"/><path class="logo-st2" d="M132.3 103.4l1.4-17.4c.3 0 .8-.1 1.3-.1.6 0 1 0 1.3.1l2.9 9c.2.4.4 1.1.6 2 .3.9.4 1.5.4 1.7h.1c.2-1.2.6-2.4 1-3.7l2.9-9c.4 0 .8-.1 1.3-.1s.9 0 1.3.1l1.4 17.4c-.3.1-.6.1-1 .1s-.6 0-.9-.1l-.7-10.6c0-.8-.1-2.4-.2-4.8h-.1l-4 12.6c-.4.1-.7.1-1 .1-.3 0-.6 0-.9-.1l-4-12.6h-.1c0 .4 0 1.2-.1 2.4 0 1.2-.1 2-.1 2.4l-.7 10.6c-.3.1-.6.1-1 .1-.5 0-.8 0-1.1-.1zM161.9 91l-3.5 12c-.6 2.2-1.3 3.7-2.1 4.6-.7.9-1.8 1.4-3.3 1.4-.7 0-1.4-.1-2.1-.3-.1-.5.1-.9.4-1.4.5.2 1.1.3 1.7.3.9 0 1.6-.3 2.1-.9s.9-1.6 1.3-2.9l.1-.3c-.4 0-.8-.1-1-.3-.2-.2-.4-.5-.6-.9l-3.6-11.2c.5-.2.9-.3 1.1-.3.5 0 .8.3 1 .9l2 6.4c.1.2.5 1.5 1.2 4 0 .1.1.2.3.2l3.1-11.3c.2-.1.5-.1.9-.1s.7-.1 1 .1zM180.1 92.5v-.3c0-.6-.1-1.1-.2-1.5-.1-.5-.3-.9-.6-1.2-.3-.3-.6-.6-1-.8-.4-.2-.9-.3-1.4-.3-1.2 0-2.1.6-2.7 1.7-.6 1.1-.8 2.8-.8 5.1 0 1.8.3 3.2 1 4.2s1.6 1.5 2.8 1.5c.6 0 1.3-.1 2.1-.4.7-.3 1.5-.8 2.4-1.4.4.2.7.6 1 1 .3.4.5.8.6 1.2-.4.4-.8.7-1.3 1-.5.3-1 .6-1.6.8l-1.8.6c-.6.1-1.3.2-1.9.2-1.3 0-2.3-.2-3.2-.7-.9-.5-1.6-1.1-2.1-2-.6-.8-1-1.8-1.2-2.9-.2-1.1-.4-2.2-.4-3.4 0-1.5.2-2.9.6-4 .4-1.1.9-2.1 1.5-2.9.6-.8 1.4-1.3 2.2-1.7.9-.4 1.8-.6 2.7-.6 1 0 1.9.1 2.7.4.8.3 1.5.6 2.1 1.1.6.5 1 1 1.3 1.6.3.6.5 1.3.5 2 0 1.3-.6 1.9-1.9 1.9h-.6s-.5-.1-.8-.2zM196.5 101.9c-.1.3-.2.6-.5 1-.2.3-.4.6-.7.8-1.1-.1-1.9-.6-2.4-1.5-1.1 1.1-2.3 1.6-3.6 1.6-.7 0-1.2-.1-1.7-.3-.5-.2-.9-.5-1.3-.9-.3-.4-.6-.8-.7-1.2-.2-.5-.2-.9-.2-1.4 0-.7.1-1.3.4-1.9.2-.5.6-1 1-1.3.5-.4 1-.6 1.6-.8.6-.2 1.3-.3 2-.3.9 0 1.6 0 2.1.1v-.8c0-1.3-.6-1.9-1.9-1.9-.9 0-2.1.3-3.9.9-.5-.5-.8-1.3-.9-2.4 1.8-.8 3.7-1.1 5.6-1.1 1.3 0 2.3.4 3.1 1.1.8.7 1.2 1.8 1.2 3.2v5.2c.1.9.4 1.5.8 1.9zm-6.4-.6c.9 0 1.6-.4 2.4-1.1v-2.2c-.3 0-.5 0-.8-.1h-.7c-.7 0-1.3.1-1.7.4-.4.3-.6.7-.6 1.4 0 .5.1.9.4 1.2.2.2.6.4 1 .4zM198.9 92.3c.1-.3.2-.6.4-1 .2-.3.4-.6.7-.8 1.4.2 2.3.9 2.8 2.3.6-1.5 1.7-2.3 3.2-2.3.6 0 1.1.1 1.5.2 0 1.2-.3 2.2-.8 3.1-.3-.1-.6-.1-1.2-.2-1 0-1.8.5-2.4 1.6v8.1c-.5.1-1.1.1-1.6.1-.6 0-1.2 0-1.7-.1v-8.5c0-1.1-.3-2-.9-2.5zM219 98.2h-7c0 .9.3 1.7.7 2.2.4.5 1.1.8 2 .8 1 0 2.1-.3 3.4-.9.5.5.8 1.2.9 2-1.4 1-3 1.5-4.9 1.5-1.8 0-3.2-.6-4.1-1.7-.9-1.1-1.4-2.8-1.4-5 0-1 .1-1.9.4-2.8.2-.8.6-1.5 1-2.1.5-.6 1-1 1.7-1.4.7-.3 1.4-.5 2.3-.5.9 0 1.6.1 2.3.4.7.3 1.2.6 1.7 1.1.5.5.8 1.1 1 1.7.2.7.3 1.4.3 2.2 0 .4 0 .8-.1 1.2s-.1.9-.2 1.3zm-4.9-5.4c-1.3 0-2 1-2.1 3h4.2v-.3c0-.8-.2-1.5-.5-2-.4-.4-.9-.7-1.6-.7zM222.2 100c.9.6 1.8.8 2.6.8.9 0 1.5-.3 1.8-.9.4-.6.5-1.5.5-2.7v-11.2c.5-.1 1.1-.1 1.7-.1.7 0 1.2 0 1.7.1v10.9c0 1-.1 1.9-.2 2.8-.2.8-.5 1.6-.9 2.2-.4.6-1 1.1-1.7 1.4-.7.3-1.6.5-2.8.5-1.5 0-2.9-.4-4.1-1.1.3-1.1.7-1.9 1.4-2.7zM243.4 91.8c1.2 1.2 1.8 3 1.8 5.3 0 1-.1 1.9-.4 2.8-.3.8-.6 1.5-1.1 2.1-.5.6-1.1 1-1.8 1.3-.7.3-1.5.5-2.4.5-.9 0-1.7-.2-2.4-.5s-1.3-.8-1.8-1.3c-.5-.6-.9-1.3-1.1-2.1-.3-.8-.4-1.7-.4-2.8 0-2.1.5-3.7 1.5-4.9s2.4-1.8 4.2-1.8c1.6 0 2.9.5 3.9 1.4zm-3.9 1.1c-1.5 0-2.2 1.4-2.2 4.2 0 2.8.7 4.2 2.2 4.2 1.5 0 2.3-1.4 2.3-4.2-.1-2.8-.8-4.2-2.3-4.2zM248.3 102.8v-18l.2-.2h1.2c.7 0 1.1.2 1.4.5.3.3.4.8.4 1.6v4.9c.9-.7 2-1.1 3.2-1.1 1.5 0 2.6.6 3.3 1.8.8 1.2 1.1 2.8 1.1 4.9 0 1-.1 1.8-.4 2.6-.3.8-.7 1.5-1.2 2-.5.6-1.2 1-1.9 1.3-.7.3-1.6.5-2.4.5-1.9 0-3.5-.2-4.9-.8zm5.4-9.6c-.4 0-.8.1-1.2.3s-.7.5-1 .9v6.7c.6.1 1.1.2 1.6.2.8 0 1.5-.4 1.9-1.1.4-.7.7-1.8.7-3.2 0-2.5-.7-3.8-2-3.8z"/></svg>