<?xml version="1.0" encoding="utf-8"?>
<!-- Generator: Adobe Illustrator 21.1.0, SVG Export Plug-In . SVG Version: 6.00 Build 0)  -->
<svg version="1.1" id="Ebene_1" xmlns="http://www.w3.org/2000/svg" xmlns:xlink="http://www.w3.org/1999/xlink" x="0px" y="0px"
	 viewBox="0 0 329 124" style="enable-background:new 0 0 329 124;" xml:space="preserve">
<style type="text/css">
	.st0{fill:#00C7FF;}
	.st1{fill:#9B9687;}
	.st2{fill:#555555;}
</style>
<path id="XMLID_4_" class="st0" d="M161.8,37.1c-41.6,13.7-51.7,41.2-55.2,75.3C93.2,82.4,54,63.9,4,74.1
	c44.4-16,69.6-15.9,95.7,3.8C107.4,55.5,127,43.6,161.8,37.1z"/>
<path id="XMLID_3_" class="st1" d="M161.8,19.8c1-5.8,6.5-9.7,12.3-8.7s9.7,6.5,8.7,12.3c-1,5.8-6.5,9.7-12.3,8.7
	C164.7,31.1,160.8,25.6,161.8,19.8L161.8,19.8z"/>
<path id="XMLID_2_" class="st1" d="M102.2,11.5c43,8.4,56.5,34.4,64.1,67.8c9.6-31.4,46.2-54.7,97.1-50.9
	c-46.1-10.3-71.1-7.1-94.5,15.7C158.5,22.9,137.5,13.6,102.2,11.5z"/>
<path id="XMLID_1_" class="st0" d="M103.6,52.8c-1.7-5.6-7.7-8.8-13.3-7.1c-5.6,1.7-8.8,7.7-7.1,13.3c1.7,5.6,7.7,8.8,13.3,7.1
	C102.2,64.3,105.4,58.4,103.6,52.8L103.6,52.8z"/>
<path class="st2" d="M133.8,112.8l1.3-17.2c0.3,0,0.8-0.1,1.3-0.1c0.6,0,1,0,1.3,0.1l2.9,8.8c0.2,0.4,0.4,1.1,0.6,2
	c0.3,0.9,0.4,1.5,0.4,1.7h0.1c0.2-1.2,0.6-2.4,1-3.7l2.9-8.8c0.4,0,0.8-0.1,1.3-0.1c0.5,0,0.9,0,1.3,0.1l1.3,17.2
	c-0.3,0.1-0.6,0.1-0.9,0.1c-0.3,0-0.6,0-0.9-0.1l-0.7-10.4c0-0.8-0.1-2.3-0.2-4.8h-0.1l-4,12.4c-0.4,0.1-0.7,0.1-1,0.1
	c-0.3,0-0.6,0-0.9-0.1l-4-12.4h-0.1c0,0.4,0,1.2-0.1,2.4c0,1.2-0.1,2-0.1,2.4l-0.7,10.4c-0.3,0-0.6,0.1-1,0.1
	C134.4,112.9,134.1,112.9,133.8,112.8z"/>
<path class="st2" d="M163.1,107.2h-7.8c0.1,2.9,1.2,4.3,3.2,4.3c1.1,0,2.4-0.4,3.6-1.1c0.4,0.3,0.6,0.8,0.7,1.3
	c-1.4,0.9-2.9,1.4-4.6,1.4c-0.9,0-1.6-0.2-2.2-0.5c-0.6-0.3-1.1-0.8-1.5-1.4c-0.4-0.6-0.7-1.3-0.9-2c-0.2-0.8-0.3-1.7-0.3-2.6
	c0-1,0.1-1.8,0.3-2.6c0.2-0.8,0.6-1.5,1-2c0.4-0.6,1-1,1.6-1.3c0.6-0.3,1.3-0.5,2.1-0.5c0.8,0,1.5,0.1,2.1,0.4
	c0.6,0.3,1.1,0.7,1.5,1.1c0.4,0.5,0.7,1,0.9,1.7c0.2,0.7,0.3,1.4,0.3,2.1c0,0.3,0,0.6,0,0.9C163.2,106.7,163.1,107,163.1,107.2z
	 M155.3,105.8h6v-0.3c0-1.2-0.2-2.1-0.7-2.8c-0.5-0.7-1.2-1.1-2.2-1.1c-1,0-1.7,0.4-2.2,1.1C155.7,103.5,155.4,104.5,155.3,105.8z"
	/>
<path class="st2" d="M169.3,102.2v10.6c-0.3,0.1-0.6,0.1-0.9,0.1c-0.4,0-0.7,0-0.9-0.1v-9.7c0-0.5-0.1-0.8-0.2-1
	c-0.2-0.2-0.4-0.3-0.8-0.3h-0.2c-0.1-0.2-0.1-0.4-0.1-0.7c0-0.3,0-0.5,0.1-0.7c0.3,0,0.6-0.1,0.8-0.1c0.2,0,0.4,0,0.5,0h0.2
	c0.5,0,0.9,0.2,1.2,0.5C169.2,101.2,169.3,101.7,169.3,102.2z M166.9,96.2c0.3-0.2,0.7-0.3,1.2-0.3c0.5,0,0.8,0.1,1,0.2
	c0.2,0.2,0.3,0.5,0.3,1c0,0.5-0.1,0.8-0.3,1c-0.2,0.2-0.5,0.2-1,0.2c-0.4,0-0.7-0.1-1-0.2c-0.2-0.1-0.4-0.5-0.4-1
	C166.7,96.7,166.7,96.4,166.9,96.2z"/>
<path class="st2" d="M183.5,104.2v6.2c0,1,0.1,1.7,0.3,2.1c-0.3,0.3-0.7,0.4-1.2,0.4c-0.6,0-1-0.4-1-1.2v-7c0-1-0.1-1.7-0.4-2.2
	c-0.3-0.4-0.7-0.6-1.4-0.6c-0.7,0-1.4,0.2-2.1,0.5c-0.7,0.4-1.3,0.8-1.8,1.4v8.9c-0.3,0.1-0.6,0.1-0.9,0.1c-0.4,0-0.7,0-0.9-0.1
	v-12.3l0.2-0.2h0.7c0.4,0,0.7,0.1,0.8,0.3c0.1,0.2,0.2,0.5,0.2,1v0.4c0.6-0.5,1.2-1,2-1.3c0.8-0.3,1.5-0.5,2.3-0.5
	c1.1,0,1.9,0.4,2.5,1.1C183.2,102.1,183.5,103,183.5,104.2z"/>
<path class="st2" d="M199.6,107.1h-2.3v5.7c-0.5,0.1-1,0.1-1.7,0.1c-0.7,0-1.2,0-1.7-0.1V95.8l0.2-0.2c1.4,0,2.5-0.1,3.4-0.1
	c0.9,0,1.6,0,2.1,0c1.8,0,3.3,0.5,4.3,1.5c1.1,1,1.6,2.4,1.6,4.3c0,0.9-0.1,1.8-0.4,2.5c-0.3,0.7-0.7,1.3-1.2,1.8
	c-0.5,0.5-1.1,0.9-1.9,1.1C201.4,107,200.5,107.1,199.6,107.1z M197.3,98.1v6.4c0.7,0,1.2,0,1.7,0s0.9,0,1.2-0.1
	c0.3-0.1,0.6-0.2,0.8-0.3c0.2-0.2,0.4-0.4,0.6-0.7c0.2-0.3,0.3-0.6,0.4-1c0.1-0.4,0.1-0.7,0.1-1.1c0-0.4,0-0.8-0.1-1.1
	c-0.1-0.4-0.2-0.7-0.4-1c-0.2-0.3-0.5-0.5-0.8-0.7c-0.3-0.2-0.8-0.3-1.3-0.3c-0.5,0-0.9,0-1.3,0C197.9,98.2,197.6,98.2,197.3,98.1z"
	/>
<path class="st2" d="M209.4,112.8v-10.2l-2.2,0c0-0.2-0.1-0.4-0.1-0.6c0-0.2,0-0.4,0-0.6c0-0.2,0-0.4,0-0.6c0-0.2,0.1-0.4,0.1-0.6
	l2,0c-0.1-0.9-0.2-1.5-0.2-2c0-0.6,0.1-1.2,0.3-1.7c0.2-0.5,0.5-1,0.9-1.3c0.4-0.4,0.8-0.7,1.3-0.9c0.5-0.2,1-0.3,1.6-0.3
	c1.2,0,2.4,0.2,3.6,0.7c0,0.9-0.2,1.7-0.7,2.2c-0.9-0.2-1.6-0.4-2.1-0.4c-1.2,0-1.8,0.6-1.8,1.9c0,0.6,0.1,1.2,0.2,1.8l3.4-0.1
	c0,0.2,0.1,0.4,0.1,0.6c0,0.2,0,0.4,0,0.6c0,0.2,0,0.4,0,0.6c0,0.2-0.1,0.4-0.1,0.6l-3.2,0v10.2c-0.3,0.1-0.6,0.1-0.8,0.1
	c-0.3,0-0.5,0-0.8,0c-0.3,0-0.5,0-0.8,0C210,112.9,209.7,112.9,209.4,112.8z"/>
<path class="st2" d="M222.1,110.4h0.8c0.2,0.5,0.3,0.9,0.3,1.4s0,0.8-0.1,1c-1,0.2-1.8,0.2-2.4,0.2c-1,0-1.7-0.2-2.1-0.7
	c-0.5-0.5-0.7-1.3-0.7-2.3V94.5l0.2-0.2h1.3c0.7,0,1.1,0.2,1.4,0.5c0.3,0.3,0.4,0.8,0.4,1.6v12.9C221,110,221.4,110.4,222.1,110.4z"
	/>
<path class="st2" d="M235.1,107.7h-6.9c0,0.9,0.3,1.6,0.6,2.2c0.4,0.5,1,0.8,2,0.8c1,0,2.1-0.3,3.3-0.9c0.5,0.5,0.8,1.2,0.9,2
	c-1.3,1-3,1.4-4.8,1.4c-1.8,0-3.1-0.5-4-1.6c-0.9-1.1-1.4-2.7-1.4-4.9c0-1,0.1-1.9,0.4-2.7c0.2-0.8,0.6-1.5,1-2.1
	c0.5-0.6,1-1,1.7-1.3c0.7-0.3,1.4-0.5,2.2-0.5c0.9,0,1.6,0.1,2.3,0.4c0.7,0.3,1.2,0.6,1.7,1.1c0.5,0.5,0.8,1,1,1.7
	c0.2,0.7,0.3,1.4,0.3,2.1c0,0.4,0,0.8-0.1,1.2C235.3,106.9,235.2,107.3,235.1,107.7z M230.3,102.4c-1.3,0-2,1-2.1,3h4.2V105
	c0-0.8-0.2-1.4-0.5-1.9S231,102.4,230.3,102.4z"/>
<path class="st2" d="M246,101.2c0.5-0.6,1.2-1,2.1-1.1c0.2,0.2,0.5,0.4,0.7,0.8c0.2,0.3,0.4,0.6,0.4,0.9c-0.5,0.4-0.7,1.1-0.7,2.1v7
	c0,1.5-0.1,2.7-0.4,3.6c-0.2,1-0.6,1.7-1.1,2.3c-0.5,0.6-1.1,1-1.8,1.2c-0.7,0.2-1.5,0.3-2.5,0.3c-1.7,0-3.2-0.3-4.6-0.9
	c0-0.4,0.1-0.8,0.2-1.3c0.2-0.5,0.4-0.8,0.6-1.1c1.1,0.5,2.2,0.8,3.4,0.8c1.9,0,2.8-1,2.8-3v-1c-1,0.8-2,1.1-3.1,1.1
	c-1.5,0-2.6-0.6-3.3-1.7c-0.7-1.2-1.1-2.7-1.1-4.8c0-1,0.1-1.9,0.4-2.7c0.3-0.8,0.6-1.5,1.1-2s1-1,1.5-1.3c0.6-0.3,1.2-0.5,1.9-0.5
	C244,100,245.1,100.4,246,101.2z M245.3,109.2v-5.7c-0.7-0.7-1.4-1-2.1-1c-0.7,0-1.2,0.4-1.6,1.1c-0.4,0.7-0.6,1.7-0.6,3
	c0,1.3,0.2,2.3,0.5,2.9c0.3,0.6,0.8,0.9,1.3,0.9C243.8,110.4,244.6,110,245.3,109.2z"/>
<path class="st2" d="M261.8,107.7h-6.9c0,0.9,0.3,1.6,0.6,2.2c0.4,0.5,1,0.8,2,0.8c1,0,2.1-0.3,3.3-0.9c0.5,0.5,0.8,1.2,0.9,2
	c-1.3,1-3,1.4-4.8,1.4c-1.8,0-3.1-0.5-4-1.6c-0.9-1.1-1.4-2.7-1.4-4.9c0-1,0.1-1.9,0.4-2.7c0.2-0.8,0.6-1.5,1-2.1
	c0.5-0.6,1-1,1.7-1.3c0.7-0.3,1.4-0.5,2.2-0.5c0.9,0,1.6,0.1,2.3,0.4c0.7,0.3,1.2,0.6,1.7,1.1c0.5,0.5,0.8,1,1,1.7
	c0.2,0.7,0.3,1.4,0.3,2.1c0,0.4,0,0.8-0.1,1.2C261.9,106.9,261.8,107.3,261.8,107.7z M256.9,102.4c-1.3,0-2,1-2.1,3h4.2V105
	c0-0.8-0.2-1.4-0.5-1.9S257.6,102.4,256.9,102.4z"/>
<path class="st2" d="M265.2,112.2V94.5l0.2-0.2h1.2c0.7,0,1.1,0.2,1.4,0.5c0.3,0.3,0.4,0.8,0.4,1.6v4.8c0.9-0.7,2-1.1,3.1-1.1
	c1.4,0,2.5,0.6,3.3,1.8c0.7,1.2,1.1,2.8,1.1,4.8c0,1-0.1,1.8-0.4,2.6c-0.3,0.8-0.7,1.4-1.2,2c-0.5,0.6-1.1,1-1.9,1.3
	c-0.7,0.3-1.5,0.5-2.4,0.5C268.2,113,266.6,112.8,265.2,112.2z M270.6,102.8c-0.4,0-0.8,0.1-1.2,0.3c-0.3,0.2-0.7,0.5-1,0.8v6.6
	c0.6,0.1,1.1,0.2,1.6,0.2c0.8,0,1.4-0.4,1.9-1.1c0.4-0.7,0.7-1.8,0.7-3.1C272.5,104,271.9,102.8,270.6,102.8z"/>
<path class="st2" d="M288.4,107.7h-6.9c0,0.9,0.3,1.6,0.6,2.2c0.4,0.5,1,0.8,2,0.8c1,0,2.1-0.3,3.3-0.9c0.5,0.5,0.8,1.2,0.9,2
	c-1.3,1-3,1.4-4.8,1.4c-1.8,0-3.1-0.5-4-1.6c-0.9-1.1-1.4-2.7-1.4-4.9c0-1,0.1-1.9,0.4-2.7c0.2-0.8,0.6-1.5,1-2.1
	c0.5-0.6,1-1,1.7-1.3c0.7-0.3,1.4-0.5,2.2-0.5c0.9,0,1.6,0.1,2.3,0.4c0.7,0.3,1.2,0.6,1.7,1.1c0.5,0.5,0.8,1,1,1.7
	c0.2,0.7,0.3,1.4,0.3,2.1c0,0.4,0,0.8-0.1,1.2C288.5,106.9,288.5,107.3,288.4,107.7z M283.5,102.4c-1.3,0-2,1-2.1,3h4.2V105
	c0-0.8-0.2-1.4-0.5-1.9C284.8,102.6,284.2,102.4,283.5,102.4z"/>
<path class="st2" d="M291.1,101.9c0.1-0.3,0.2-0.6,0.4-1c0.2-0.3,0.4-0.6,0.6-0.8c1.4,0.2,2.3,0.9,2.8,2.3c0.6-1.5,1.7-2.2,3.2-2.2
	c0.6,0,1.1,0.1,1.5,0.2c0,1.2-0.3,2.2-0.8,3.1c-0.3-0.1-0.6-0.1-1.2-0.2c-1,0-1.8,0.5-2.4,1.6v8c-0.5,0.1-1,0.1-1.6,0.1
	c-0.6,0-1.1,0-1.7-0.1v-8.4C292,103.3,291.7,102.4,291.1,101.9z"/>
<path class="st2" d="M301.7,108.8v-5.5c0-1-0.2-1.8-0.5-2.4c0.6-0.5,1.2-0.7,1.9-0.7c0.7,0,1.2,0.2,1.5,0.5c0.3,0.3,0.4,0.9,0.4,1.5
	v5.9c0,0.7,0.1,1.2,0.3,1.5c0.2,0.3,0.5,0.5,1,0.5c0.9,0,1.7-0.4,2.5-1.2v-8.6c0.4-0.1,0.9-0.1,1.6-0.1c0.7,0,1.3,0,1.7,0.1v8.9
	c0,1,0.2,1.7,0.7,2.1c-0.1,0.3-0.2,0.6-0.4,0.9c-0.2,0.3-0.4,0.6-0.7,0.7c-1.2-0.1-2.1-0.7-2.5-1.8c-1.3,1.2-2.6,1.8-4,1.8
	c-1.1,0-2-0.4-2.6-1.2C302,111.1,301.7,110.1,301.7,108.8z"/>
<path class="st2" d="M316.6,112.8v-10.2l-2.2,0c0-0.2-0.1-0.4-0.1-0.6c0-0.2,0-0.4,0-0.6c0-0.2,0-0.4,0-0.6c0-0.2,0.1-0.4,0.1-0.6
	l2,0c-0.1-0.9-0.2-1.5-0.2-2c0-0.6,0.1-1.2,0.3-1.7c0.2-0.5,0.5-1,0.9-1.3c0.4-0.4,0.8-0.7,1.3-0.9c0.5-0.2,1-0.3,1.6-0.3
	c1.2,0,2.4,0.2,3.6,0.7c0,0.9-0.2,1.7-0.7,2.2c-0.9-0.2-1.6-0.4-2.1-0.4c-1.2,0-1.8,0.6-1.8,1.9c0,0.6,0.1,1.2,0.2,1.8l3.4-0.1
	c0,0.2,0.1,0.4,0.1,0.6c0,0.2,0,0.4,0,0.6c0,0.2,0,0.4,0,0.6c0,0.2-0.1,0.4-0.1,0.6l-3.2,0v10.2c-0.3,0.1-0.6,0.1-0.8,0.1
	c-0.3,0-0.5,0-0.8,0c-0.3,0-0.5,0-0.8,0C317.2,112.9,316.9,112.9,316.6,112.8z"/>
</svg>
